<?xml version="1.0" standalone="no"?>
<!DOCTYPE svg PUBLIC "-//W3C//DTD SVG 20010904//EN"
 "http://www.w3.org/TR/2001/REC-SVG-20010904/DTD/svg10.dtd">
<svg version="1.0" xmlns="http://www.w3.org/2000/svg"
 width="140.000000pt" height="140.000000pt" viewBox="0 0 140.000000 140.000000"
 preserveAspectRatio="xMidYMid meet">
<metadata>
Created by potrace 1.16, written by Peter Selinger 2001-2019
</metadata>
<g transform="translate(0.000000,140.000000) scale(0.100000,-0.100000)"
fill="#000000" stroke="none">
<path d="M250 1016 c-70 -14 -117 -44 -174 -107 -54 -60 -76 -121 -76 -209 0
-88 22 -149 77 -210 80 -89 180 -127 289 -110 102 17 167 56 219 133 38 56 44
91 19 101 -27 10 -31 7 -62 -43 -36 -58 -80 -93 -145 -115 -72 -24 -117 -20
-188 17 -193 100 -193 354 0 455 71 36 116 40 188 16 65 -22 109 -57 145 -115
31 -50 35 -53 62 -43 25 9 19 42 -16 97 -69 107 -206 161 -338 133z"/>
<path d="M1030 1020 c-98 -17 -164 -58 -215 -133 -38 -56 -44 -91 -19 -101 27
-10 31 -7 62 43 36 58 80 93 145 115 71 24 116 20 186 -15 96 -48 144 -124
144 -229 0 -105 -48 -181 -144 -229 -70 -35 -115 -39 -186 -15 -65 22 -109 57
-145 115 -31 50 -35 53 -62 43 -25 -10 -19 -45 19 -101 52 -77 117 -116 219
-133 109 -17 209 21 289 110 55 61 77 122 77 210 0 88 -22 149 -77 210 -57 64
-112 96 -187 109 -33 6 -60 10 -60 10 -1 -1 -21 -5 -46 -9z"/>
<path d="M350 700 l0 -30 350 0 350 0 0 30 0 30 -350 0 -350 0 0 -30z"/>
</g>
</svg>
