<?xml version="1.0" standalone="no"?>
<!DOCTYPE svg PUBLIC "-//W3C//DTD SVG 20010904//EN"
 "http://www.w3.org/TR/2001/REC-SVG-20010904/DTD/svg10.dtd">
<svg version="1.0" xmlns="http://www.w3.org/2000/svg"
 width="140.000000pt" height="140.000000pt" viewBox="0 0 140.000000 140.000000"
 preserveAspectRatio="xMidYMid meet">
<metadata>
Created by potrace 1.16, written by Peter Selinger 2001-2019
</metadata>
<g transform="translate(0.000000,140.000000) scale(0.100000,-0.100000)"
fill="#000000" stroke="none">
<path d="M885 1257 c-127 -42 -210 -140 -222 -263 l-6 -57 -66 6 c-104 10
-210 68 -325 178 -100 95 -125 106 -151 65 -21 -32 -22 -192 -2 -259 l15 -47
-47 6 c-38 5 -51 3 -65 -12 -36 -36 3 -145 80 -225 l45 -45 -26 -12 c-60 -27
-4 -128 103 -185 l64 -34 -66 -17 c-36 -9 -90 -16 -119 -16 -68 0 -103 -23
-94 -62 6 -21 22 -32 84 -57 359 -142 697 -110 928 90 149 129 234 291 257
491 l11 97 54 38 c81 56 82 98 1 130 -21 8 -38 19 -38 24 0 6 9 27 20 49 47
93 13 126 -94 90 l-66 -22 -53 26 c-65 32 -164 42 -222 23z m152 -98 c15 -5
45 -22 65 -36 33 -22 41 -24 69 -14 28 10 30 9 24 -7 -22 -53 -14 -75 34 -93
l25 -10 -36 -29 c-35 -29 -35 -30 -41 -127 -15 -269 -188 -495 -442 -580 -71
-24 -96 -27 -220 -28 -83 0 -164 5 -199 13 l-58 14 77 33 c109 48 155 80 155
109 0 34 -16 43 -103 55 -78 11 -126 27 -161 54 -18 13 -16 15 35 32 69 22 79
31 79 66 0 30 -23 49 -60 49 -42 0 -127 58 -151 103 -9 16 -5 17 60 11 105
-10 130 22 70 91 -34 38 -69 120 -69 161 l0 26 38 -34 c99 -90 221 -151 328
-166 66 -9 157 -4 180 11 6 3 14 38 18 77 3 39 12 86 20 103 16 40 64 88 108
110 38 19 113 22 155 6z"/>
</g>
</svg>
