<?xml version="1.0" standalone="no"?>
<!DOCTYPE svg PUBLIC "-//W3C//DTD SVG 20010904//EN"
 "http://www.w3.org/TR/2001/REC-SVG-20010904/DTD/svg10.dtd">
<svg version="1.0" xmlns="http://www.w3.org/2000/svg"
 width="140.000000pt" height="140.000000pt" viewBox="0 0 140.000000 140.000000"
 preserveAspectRatio="xMidYMid meet">
<metadata>
Created by potrace 1.16, written by Peter Selinger 2001-2019
</metadata>
<g transform="translate(0.000000,140.000000) scale(0.100000,-0.100000)"
fill="#000000" stroke="none">
<path d="M1125 1386 c-16 -8 -162 -146 -323 -308 l-293 -294 -18 -121 c-10
-68 -14 -130 -9 -142 9 -26 38 -27 181 -6 l102 16 288 287 c181 181 295 302
307 328 59 121 -23 255 -157 254 -26 -1 -61 -7 -78 -14z m114 -91 c38 -19 53
-62 36 -101 -7 -16 -136 -151 -287 -301 l-273 -272 -64 -10 c-36 -6 -66 -9
-68 -7 -2 2 1 32 6 67 l11 63 277 279 c153 153 287 282 298 287 28 12 32 12
64 -5z"/>
<path d="M79 1117 c-18 -12 -39 -34 -46 -47 -10 -19 -13 -142 -13 -509 l0
-483 39 -39 39 -39 488 0 c529 1 518 0 555 56 17 27 19 49 19 287 l0 257 -24
11 c-17 8 -29 8 -45 0 -21 -11 -21 -17 -21 -250 0 -218 -2 -239 -18 -254 -17
-15 -64 -17 -465 -17 l-446 0 -15 22 c-14 20 -16 80 -16 458 0 361 2 440 14
456 13 18 32 19 257 24 212 4 243 7 252 22 8 12 8 24 -1 42 l-12 26 -253 0
c-248 0 -255 -1 -288 -23z"/>
</g>
</svg>
