<?xml version="1.0" standalone="no"?>
<!DOCTYPE svg PUBLIC "-//W3C//DTD SVG 20010904//EN"
 "http://www.w3.org/TR/2001/REC-SVG-20010904/DTD/svg10.dtd">
<svg version="1.0" xmlns="http://www.w3.org/2000/svg"
 width="140.000000pt" height="140.000000pt" viewBox="0 0 140.000000 140.000000"
 preserveAspectRatio="xMidYMid meet">
<metadata>
Created by potrace 1.16, written by Peter Selinger 2001-2019
</metadata>
<g transform="translate(0.000000,140.000000) scale(0.100000,-0.100000)"
fill="#000000" stroke="none">
<path d="M357 1129 c-337 -289 -346 -299 -292 -335 23 -15 27 -15 51 1 14 9
151 124 305 256 l279 239 279 -239 c154 -132 291 -247 305 -256 24 -16 28 -16
51 -1 54 36 45 46 -292 335 -242 207 -323 271 -343 271 -20 0 -101 -64 -343
-271z"/>
<path d="M430 929 c-135 -115 -257 -223 -272 -239 l-28 -30 0 -301 0 -301 29
-29 29 -29 206 0 c193 0 206 1 216 19 6 12 10 100 10 215 l0 196 80 0 80 0 0
-196 c0 -115 4 -203 10 -215 10 -18 23 -19 216 -19 l206 0 29 29 29 29 0 297
c0 181 -4 304 -10 315 -6 11 -129 121 -274 245 -185 157 -271 225 -288 224
-15 0 -106 -71 -268 -210z m510 -105 l240 -205 -2 -262 -3 -262 -147 -3 -148
-3 0 196 c0 195 0 196 -25 220 -23 24 -29 25 -155 25 -126 0 -132 -1 -155 -25
-25 -24 -25 -25 -25 -220 l0 -196 -147 3 -148 3 -3 262 -2 262 237 205 c131
112 239 205 241 205 1 1 110 -92 242 -205z"/>
</g>
</svg>
