<?xml version="1.0" standalone="no"?>
<!DOCTYPE svg PUBLIC "-//W3C//DTD SVG 20010904//EN"
 "http://www.w3.org/TR/2001/REC-SVG-20010904/DTD/svg10.dtd">
<svg version="1.0" xmlns="http://www.w3.org/2000/svg"
 width="140.000000pt" height="140.000000pt" viewBox="0 0 140.000000 140.000000"
 preserveAspectRatio="xMidYMid meet">
<metadata>
Created by potrace 1.16, written by Peter Selinger 2001-2019
</metadata>
<g transform="translate(0.000000,140.000000) scale(0.100000,-0.100000)"
fill="#000000" stroke="none">
<path d="M622 1390 c-56 -24 -122 -101 -122 -142 0 -16 -13 -18 -137 -18 -127
0 -139 -2 -178 -25 -44 -25 -75 -79 -75 -130 0 -24 -3 -25 -55 -25 -54 0 -55
0 -55 -30 l0 -30 85 0 85 0 0 -435 c0 -477 0 -478 59 -528 l33 -27 438 0 438
0 33 27 c59 50 59 51 59 528 l0 435 85 0 85 0 0 30 c0 30 -1 30 -55 30 -52 0
-55 1 -55 25 0 51 -31 105 -75 130 -39 23 -51 25 -178 25 -119 0 -137 2 -137
16 0 30 -43 94 -83 121 -32 22 -53 28 -106 30 -36 2 -77 -2 -89 -7z m158 -80
c17 -12 37 -35 45 -51 l16 -29 -141 0 -141 0 15 28 c41 79 134 103 206 52z
m414 -176 c16 -17 26 -38 26 -55 l0 -29 -520 0 -520 0 0 29 c0 17 10 38 26 55
l27 26 467 0 467 0 27 -26z m-34 -582 l0 -439 -26 -24 -26 -24 -408 0 -408 0
-26 24 -26 24 0 439 0 438 460 0 460 0 0 -438z"/>
<path d="M412 838 c-14 -14 -18 -574 -3 -596 4 -8 19 -12 32 -10 l24 3 0 305
c0 298 0 305 -20 308 -11 1 -26 -3 -33 -10z"/>
<path d="M677 844 c-4 -4 -7 -144 -7 -311 l0 -303 30 0 30 0 -2 308 c-3 300
-3 307 -23 310 -12 2 -24 0 -28 -4z"/>
<path d="M935 837 c-3 -7 -4 -145 -3 -307 l3 -295 24 -3 c13 -2 28 2 32 10 14
22 11 582 -3 596 -16 16 -47 15 -53 -1z"/>
</g>
</svg>
