<?xml version="1.0" standalone="no"?>
<!DOCTYPE svg PUBLIC "-//W3C//DTD SVG 20010904//EN"
 "http://www.w3.org/TR/2001/REC-SVG-20010904/DTD/svg10.dtd">
<svg version="1.0" xmlns="http://www.w3.org/2000/svg"
 width="140.000000pt" height="140.000000pt" viewBox="0 0 140.000000 140.000000"
 preserveAspectRatio="xMidYMid meet">
<metadata>
Created by potrace 1.16, written by Peter Selinger 2001-2019
</metadata>
<g transform="translate(0.000000,140.000000) scale(0.100000,-0.100000)"
fill="#000000" stroke="none">
<path d="M642 1383 c-12 -10 -64 -102 -117 -205 -111 -215 -76 -190 -290 -209
-207 -18 -235 -31 -235 -113 0 -38 7 -47 156 -197 l156 -157 -56 -204 c-31
-112 -56 -212 -56 -222 0 -9 13 -31 29 -47 48 -48 76 -41 286 63 l185 93 185
-93 c213 -106 246 -113 289 -61 14 17 26 38 26 47 0 9 -25 109 -56 221 l-55
204 155 156 c153 153 156 157 156 199 0 32 -6 49 -24 67 -25 25 -40 28 -226
45 -197 18 -165 -6 -275 208 -53 103 -106 195 -117 205 -11 9 -36 17 -58 17
-21 0 -47 -8 -58 -17z m158 -274 c52 -105 101 -195 108 -201 10 -8 315 -47
382 -48 8 0 -56 -71 -143 -158 -119 -119 -157 -163 -157 -182 0 -14 24 -113
54 -220 29 -107 53 -196 51 -198 -1 -1 -86 38 -189 88 -103 49 -196 90 -206
90 -10 0 -103 -41 -206 -90 -103 -50 -188 -89 -189 -88 -1 2 22 91 51 198 30
107 54 206 54 220 0 19 -38 63 -156 181 l-156 156 43 6 c24 4 105 12 179 18
74 7 145 16 157 20 17 6 49 61 120 204 54 107 100 195 103 195 3 0 48 -86 100
-191z"/>
</g>
</svg>
