<?xml version="1.0" standalone="no"?>
<!DOCTYPE svg PUBLIC "-//W3C//DTD SVG 20010904//EN"
 "http://www.w3.org/TR/2001/REC-SVG-20010904/DTD/svg10.dtd">
<svg version="1.0" xmlns="http://www.w3.org/2000/svg"
 width="140.000000pt" height="140.000000pt" viewBox="0 0 140.000000 140.000000"
 preserveAspectRatio="xMidYMid meet">
<metadata>
Created by potrace 1.16, written by Peter Selinger 2001-2019
</metadata>
<g transform="translate(0.000000,140.000000) scale(0.100000,-0.100000)"
fill="#000000" stroke="none">
<path d="M574 1380 c-181 -47 -328 -164 -413 -330 -48 -94 -58 -125 -70 -228
-16 -125 15 -299 66 -378 12 -20 6 -37 -72 -199 -85 -177 -99 -227 -69 -239
32 -12 55 -4 227 78 l176 85 51 -25 c119 -57 307 -74 440 -39 177 46 341 178
418 335 55 113 72 183 72 305 0 311 -203 569 -502 640 -87 20 -236 18 -324 -5z
m349 -103 c148 -54 257 -150 324 -283 111 -225 71 -466 -107 -644 -122 -123
-263 -177 -430 -167 -85 5 -194 38 -243 72 -33 23 -61 18 -155 -29 -48 -24
-104 -51 -124 -59 -37 -15 -37 -15 -29 6 5 12 32 69 60 126 28 57 51 112 51
122 0 9 -13 42 -29 72 -113 215 -61 496 123 664 150 138 376 186 559 120z"/>
<path d="M690 1087 c-13 -7 -29 -25 -34 -40 -22 -61 67 -114 113 -68 30 30 27
75 -5 100 -31 24 -40 25 -74 8z"/>
<path d="M623 869 c-14 -14 -17 -38 -7 -63 4 -9 23 -19 45 -22 l39 -7 0 -124
c0 -169 22 -207 129 -220 61 -7 91 8 91 45 0 39 -17 52 -65 52 -23 0 -46 5
-53 12 -8 8 -12 55 -12 144 0 125 -1 135 -23 160 -19 22 -34 28 -78 31 -36 3
-58 0 -66 -8z"/>
</g>
</svg>
