<?xml version="1.0" standalone="no"?>
<!DOCTYPE svg PUBLIC "-//W3C//DTD SVG 20010904//EN"
 "http://www.w3.org/TR/2001/REC-SVG-20010904/DTD/svg10.dtd">
<svg version="1.0" xmlns="http://www.w3.org/2000/svg"
 width="140.000000pt" height="140.000000pt" viewBox="0 0 140.000000 140.000000"
 preserveAspectRatio="xMidYMid meet">
<metadata>
Created by potrace 1.16, written by Peter Selinger 2001-2019
</metadata>
<g transform="translate(0.000000,140.000000) scale(0.100000,-0.100000)"
fill="#000000" stroke="none">
<path d="M575 1376 c-259 -63 -429 -280 -429 -546 1 -198 78 -339 257 -471 92
-67 120 -101 194 -232 88 -155 118 -155 206 0 73 129 111 176 182 223 179 119
269 278 269 475 0 105 -16 178 -55 255 -31 62 -110 158 -160 196 -126 95 -318
136 -464 100z m265 -76 c219 -65 362 -272 348 -504 -9 -139 -85 -276 -200
-357 -113 -80 -161 -132 -224 -243 -32 -58 -61 -105 -64 -105 -3 -1 -29 43
-59 96 -65 117 -104 160 -201 229 -90 63 -108 81 -155 159 -92 154 -99 312
-21 476 98 207 350 316 576 249z"/>
<path d="M657 1208 c-9 -7 -32 -48 -52 -90 l-36 -78 -73 0 c-88 0 -119 -18
-119 -69 0 -26 12 -44 63 -96 l64 -64 -32 -78 c-39 -94 -40 -115 -6 -142 38
-30 55 -27 143 24 43 25 84 45 91 45 7 0 48 -20 91 -45 88 -51 105 -54 143
-24 34 27 33 48 -6 142 l-32 78 63 63 c50 51 62 69 63 96 2 52 -28 70 -118 70
l-73 0 -36 78 c-39 84 -55 102 -95 102 -14 0 -34 -6 -43 -12z m83 -134 c18
-41 39 -82 47 -90 10 -10 38 -14 91 -14 l76 0 -67 -68 c-37 -37 -67 -73 -67
-79 0 -6 16 -48 35 -94 20 -45 34 -83 32 -85 -1 -2 -42 19 -90 46 -47 28 -91
50 -97 50 -6 0 -50 -22 -97 -50 -48 -27 -89 -48 -90 -46 -2 2 12 40 32 85 19
46 35 88 35 94 0 6 -30 42 -67 79 l-67 68 76 0 c53 0 81 4 91 14 8 8 29 49 47
90 19 42 36 76 40 76 4 0 21 -34 40 -76z"/>
</g>
</svg>
