<?xml version="1.0" standalone="no"?>
<!DOCTYPE svg PUBLIC "-//W3C//DTD SVG 20010904//EN"
 "http://www.w3.org/TR/2001/REC-SVG-20010904/DTD/svg10.dtd">
<svg version="1.0" xmlns="http://www.w3.org/2000/svg"
 width="140.000000pt" height="140.000000pt" viewBox="0 0 140.000000 140.000000"
 preserveAspectRatio="xMidYMid meet">
<metadata>
Created by potrace 1.16, written by Peter Selinger 2001-2019
</metadata>
<g transform="translate(0.000000,140.000000) scale(0.100000,-0.100000)"
fill="#000000" stroke="none">
<path d="M345 1360 c-11 -12 -37 -69 -60 -128 l-40 -107 -98 -5 c-106 -5 -120
-13 -134 -69 -12 -50 5 -72 122 -156 l28 -21 -37 -84 c-44 -101 -45 -134 -9
-172 41 -43 78 -38 194 28 l98 56 99 -56 c116 -66 149 -70 193 -27 39 39 37
67 -9 171 l-38 86 68 48 c93 65 109 116 56 174 -19 20 -31 22 -113 22 l-91 0
-43 116 c-26 68 -53 121 -65 130 -31 22 -99 18 -121 -6z m104 -183 c59 -159
46 -147 158 -147 l96 0 -74 -53 c-54 -39 -75 -60 -77 -78 -2 -14 15 -67 37
-118 l40 -92 -42 24 c-23 14 -73 41 -111 61 l-68 36 -87 -46 c-47 -26 -97 -54
-109 -62 l-24 -15 16 38 c9 21 28 64 42 95 36 81 31 96 -53 155 l-72 50 97 5
97 5 44 118 c25 64 47 117 50 117 3 0 21 -42 40 -93z"/>
<path d="M811 791 c-12 -12 -21 -24 -21 -29 0 -27 51 -58 229 -142 l200 -95
-155 -31 c-85 -17 -159 -35 -164 -40 -5 -5 -11 -68 -12 -140 l-3 -131 -119
174 c-121 177 -147 201 -181 173 -8 -7 -15 -23 -15 -37 0 -32 295 -462 318
-465 34 -3 56 3 74 19 16 14 18 35 18 173 l0 157 163 32 c193 38 193 38 212
57 21 21 19 77 -2 96 -17 15 -462 230 -503 243 -12 4 -26 -1 -39 -14z"/>
</g>
</svg>
