<?xml version="1.0" standalone="no"?>
<!DOCTYPE svg PUBLIC "-//W3C//DTD SVG 20010904//EN"
 "http://www.w3.org/TR/2001/REC-SVG-20010904/DTD/svg10.dtd">
<svg version="1.0" xmlns="http://www.w3.org/2000/svg"
 width="140.000000pt" height="140.000000pt" viewBox="0 0 140.000000 140.000000"
 preserveAspectRatio="xMidYMid meet">
<metadata>
Created by potrace 1.16, written by Peter Selinger 2001-2019
</metadata>
<g transform="translate(0.000000,140.000000) scale(0.100000,-0.100000)"
fill="#000000" stroke="none">
<path d="M512 1380 c-120 -32 -205 -83 -307 -185 -148 -147 -205 -286 -205
-495 0 -209 57 -348 205 -495 147 -148 286 -205 495 -205 209 0 347 57 495
205 147 147 205 286 205 495 0 209 -57 348 -205 495 -103 103 -187 154 -311
185 -103 27 -270 26 -372 0z m358 -66 c113 -33 181 -75 270 -164 138 -138 193
-267 193 -455 0 -178 -56 -309 -189 -442 -104 -104 -202 -154 -347 -179 -90
-15 -104 -15 -194 0 -145 25 -243 75 -347 179 -133 133 -189 263 -189 442 -1
173 54 313 171 437 100 106 222 174 354 197 71 13 210 5 278 -15z"/>
<path d="M385 802 c-61 -14 -95 -76 -75 -136 23 -71 116 -93 171 -40 24 23 29
36 29 74 0 38 -5 51 -27 72 -30 27 -65 38 -98 30z"/>
<path d="M673 803 c-29 -6 -70 -48 -75 -78 -21 -106 101 -173 177 -98 32 33
37 84 14 129 -17 33 -72 55 -116 47z"/>
<path d="M965 803 c-11 -3 -32 -17 -47 -31 -23 -21 -28 -34 -28 -72 0 -38 5
-51 29 -74 53 -51 135 -35 167 32 37 78 -35 164 -121 145z"/>
</g>
</svg>
