<?xml version="1.0" standalone="no"?>
<!DOCTYPE svg PUBLIC "-//W3C//DTD SVG 20010904//EN"
 "http://www.w3.org/TR/2001/REC-SVG-20010904/DTD/svg10.dtd">
<svg version="1.0" xmlns="http://www.w3.org/2000/svg"
 width="140.000000pt" height="140.000000pt" viewBox="0 0 140.000000 140.000000"
 preserveAspectRatio="xMidYMid meet">
<metadata>
Created by potrace 1.16, written by Peter Selinger 2001-2019
</metadata>
<g transform="translate(0.000000,140.000000) scale(0.100000,-0.100000)"
fill="#000000" stroke="none">
<path d="M541 1090 c-153 -37 -348 -157 -478 -293 -84 -87 -84 -106 -6 -189
119 -124 302 -243 453 -294 79 -27 301 -27 380 0 151 51 334 170 453 294 78
83 78 102 -5 189 -133 138 -321 253 -482 293 -98 25 -215 25 -315 0z m310 -69
c141 -40 282 -125 406 -245 l78 -75 -50 -51 c-27 -29 -88 -81 -135 -116 -309
-233 -591 -233 -900 0 -47 35 -107 87 -135 116 l-50 51 78 75 c80 77 212 170
294 206 136 60 290 75 414 39z"/>
<path d="M645 931 c-111 -29 -179 -116 -179 -231 0 -138 96 -234 234 -234 138
0 234 96 234 234 0 95 -44 169 -125 210 -42 22 -121 32 -164 21z m118 -75 c44
-18 95 -78 103 -121 11 -60 -4 -106 -50 -151 -46 -46 -91 -61 -153 -49 -50 9
-119 78 -128 128 -11 55 2 103 38 144 53 60 122 78 190 49z"/>
</g>
</svg>
