<?xml version="1.0" standalone="no"?>
<!DOCTYPE svg PUBLIC "-//W3C//DTD SVG 20010904//EN"
 "http://www.w3.org/TR/2001/REC-SVG-20010904/DTD/svg10.dtd">
<svg version="1.0" xmlns="http://www.w3.org/2000/svg"
 width="140.000000pt" height="140.000000pt" viewBox="0 0 140.000000 140.000000"
 preserveAspectRatio="xMidYMid meet">
<metadata>
Created by potrace 1.16, written by Peter Selinger 2001-2019
</metadata>
<g transform="translate(0.000000,140.000000) scale(0.100000,-0.100000)"
fill="#000000" stroke="none">
<path d="M115 1313 c-40 -11 -75 -44 -85 -84 -7 -26 -10 -176 -8 -440 l3 -401
37 -34 38 -34 135 0 135 0 0 -84 c0 -96 9 -130 40 -146 35 -19 67 2 185 120
l110 110 297 0 298 0 38 34 37 34 0 414 c0 227 -3 425 -8 440 -4 15 -22 37
-40 50 l-32 23 -580 1 c-319 1 -589 0 -600 -3z m1133 -495 l-3 -373 -301 -5
-302 -5 -68 -63 -69 -64 -3 50 c-5 78 -12 81 -192 84 l-155 3 -3 373 -2 372
550 0 550 0 -2 -372z"/>
</g>
</svg>
