<?xml version="1.0" standalone="no"?>
<!DOCTYPE svg PUBLIC "-//W3C//DTD SVG 20010904//EN"
 "http://www.w3.org/TR/2001/REC-SVG-20010904/DTD/svg10.dtd">
<svg version="1.0" xmlns="http://www.w3.org/2000/svg"
 width="140.000000pt" height="140.000000pt" viewBox="0 0 140.000000 140.000000"
 preserveAspectRatio="xMidYMid meet">
<metadata>
Created by potrace 1.16, written by Peter Selinger 2001-2019
</metadata>
<g transform="translate(0.000000,140.000000) scale(0.100000,-0.100000)"
fill="#000000" stroke="none">
<path d="M545 1181 c-121 -35 -253 -122 -379 -247 -107 -107 -166 -189 -166
-231 0 -59 168 -234 323 -337 46 -31 94 -56 106 -56 40 0 61 18 61 53 0 42 -2
44 -95 107 -86 59 -259 224 -253 242 7 19 140 161 195 207 118 100 257 161
365 161 81 0 174 -33 278 -99 56 -35 280 -251 280 -271 0 -20 -176 -186 -255
-240 -44 -29 -83 -59 -87 -64 -13 -19 -9 -64 8 -80 27 -28 64 -18 151 40 155
103 323 278 323 337 0 81 -270 351 -434 434 -125 63 -294 81 -421 44z"/>
<path d="M652 999 c-190 -35 -269 -283 -132 -414 24 -23 30 -37 30 -71 0 -64
20 -74 150 -74 130 0 150 10 150 74 0 34 6 48 30 71 98 94 91 261 -15 354 -63
55 -133 75 -213 60z"/>
<path d="M592 374 c-32 -22 -28 -83 6 -100 13 -7 32 -26 43 -43 15 -25 25 -31
54 -31 29 0 39 6 53 29 9 16 30 35 47 43 24 11 31 20 33 50 5 54 -21 68 -128
68 -62 0 -92 -4 -108 -16z"/>
</g>
</svg>
