<?xml version="1.0" standalone="no"?>
<!DOCTYPE svg PUBLIC "-//W3C//DTD SVG 20010904//EN"
 "http://www.w3.org/TR/2001/REC-SVG-20010904/DTD/svg10.dtd">
<svg version="1.0" xmlns="http://www.w3.org/2000/svg"
 width="140.000000pt" height="140.000000pt" viewBox="0 0 140.000000 140.000000"
 preserveAspectRatio="xMidYMid meet">
<metadata>
Created by potrace 1.16, written by Peter Selinger 2001-2019
</metadata>
<g transform="translate(0.000000,140.000000) scale(0.100000,-0.100000)"
fill="#000000" stroke="none">
<path d="M530 1385 c-128 -32 -250 -104 -346 -208 -121 -128 -175 -259 -182
-440 -5 -136 6 -207 50 -310 41 -97 93 -171 170 -242 133 -124 259 -176 441
-183 135 -5 211 7 310 49 211 89 377 291 416 506 14 72 14 213 1 285 -48 256
-266 482 -525 543 -75 18 -261 18 -335 0z m249 -270 c74 -34 151 -112 189
-192 23 -50 27 -71 27 -148 0 -81 -3 -97 -33 -159 l-33 -70 105 -105 c97 -99
110 -117 107 -148 -2 -17 -30 -43 -48 -43 -9 0 -67 50 -129 111 l-113 112 -36
-21 c-106 -63 -249 -68 -354 -11 -75 39 -144 112 -179 187 -23 49 -27 70 -26
147 0 75 4 99 26 147 89 194 307 278 497 193z"/>
<path d="M538 1023 c-62 -21 -117 -69 -148 -129 -20 -40 -25 -63 -25 -124 1
-90 21 -135 88 -197 55 -51 109 -67 199 -61 143 11 238 115 238 260 0 186
-175 310 -352 251z"/>
</g>
</svg>
