<?xml version="1.0" standalone="no"?>
<!DOCTYPE svg PUBLIC "-//W3C//DTD SVG 20010904//EN"
 "http://www.w3.org/TR/2001/REC-SVG-20010904/DTD/svg10.dtd">
<svg version="1.0" xmlns="http://www.w3.org/2000/svg"
 width="140.000000pt" height="140.000000pt" viewBox="0 0 140.000000 140.000000"
 preserveAspectRatio="xMidYMid meet">
<metadata>
Created by potrace 1.16, written by Peter Selinger 2001-2019
</metadata>
<g transform="translate(0.000000,140.000000) scale(0.100000,-0.100000)"
fill="#000000" stroke="none">
<path d="M413 1371 c-107 -37 -166 -76 -250 -164 -115 -122 -163 -246 -163
-420 0 -175 51 -304 169 -426 144 -150 343 -215 551 -181 83 13 213 70 269
117 l34 29 160 -163 c132 -134 166 -163 189 -163 24 0 28 4 28 29 0 25 -25 53
-164 186 l-164 157 35 46 c115 150 152 373 93 563 -42 139 -164 282 -300 353
-95 50 -166 66 -295 66 -95 0 -121 -4 -192 -29z m312 -46 c105 -22 189 -69
270 -150 112 -112 165 -236 165 -390 0 -150 -50 -265 -165 -381 -117 -118
-223 -164 -380 -164 -191 0 -359 92 -465 253 -174 265 -75 631 213 783 115 60
232 76 362 49z"/>
</g>
</svg>
