<?xml version="1.0" standalone="no"?>
<!DOCTYPE svg PUBLIC "-//W3C//DTD SVG 20010904//EN"
 "http://www.w3.org/TR/2001/REC-SVG-20010904/DTD/svg10.dtd">
<svg version="1.0" xmlns="http://www.w3.org/2000/svg"
 width="140.000000pt" height="140.000000pt" viewBox="0 0 140.000000 140.000000"
 preserveAspectRatio="xMidYMid meet">
<metadata>
Created by potrace 1.16, written by Peter Selinger 2001-2019
</metadata>
<g transform="translate(0.000000,140.000000) scale(0.100000,-0.100000)"
fill="#000000" stroke="none">
<path d="M620 1382 c-15 -12 -44 -81 -90 -212 l-68 -195 -204 -5 c-161 -4
-209 -8 -224 -20 -30 -23 -34 -32 -34 -75 0 -48 17 -66 200 -215 63 -51 121
-99 129 -106 11 -10 2 -45 -53 -211 -36 -109 -66 -212 -66 -229 0 -40 32 -81
70 -89 38 -8 54 1 234 134 76 56 139 101 139 99 57 -118 117 -185 202 -225 54
-25 70 -28 170 -28 106 0 112 1 173 34 73 40 130 98 168 173 23 44 28 69 32
148 3 80 0 104 -18 153 -24 65 -87 150 -131 176 l-29 18 70 62 c66 59 70 65
70 105 0 33 -6 48 -26 67 -25 23 -31 24 -231 29 l-205 5 -69 195 c-44 125 -76
201 -90 213 -28 22 -90 22 -119 -1z m504 -769 c97 -50 149 -130 150 -228 0
-150 -106 -259 -254 -259 -184 1 -307 188 -233 354 58 131 218 194 337 133z"/>
<path d="M980 551 c-5 -11 -10 -42 -10 -70 l0 -51 -51 0 c-65 0 -89 -13 -89
-48 0 -41 17 -52 82 -52 l58 0 0 -51 c0 -65 13 -89 48 -89 41 0 52 17 52 82
l0 58 58 0 c65 0 82 11 82 52 0 35 -24 48 -89 48 l-51 0 0 58 c0 32 -5 63 -12
70 -19 19 -66 15 -78 -7z"/>
</g>
</svg>
