<?xml version="1.0" standalone="no"?>
<!DOCTYPE svg PUBLIC "-//W3C//DTD SVG 20010904//EN"
 "http://www.w3.org/TR/2001/REC-SVG-20010904/DTD/svg10.dtd">
<svg version="1.0" xmlns="http://www.w3.org/2000/svg"
 width="140.000000pt" height="140.000000pt" viewBox="0 0 140.000000 140.000000"
 preserveAspectRatio="xMidYMid meet">
<metadata>
Created by potrace 1.16, written by Peter Selinger 2001-2019
</metadata>
<g transform="translate(0.000000,140.000000) scale(0.100000,-0.100000)"
fill="#000000" stroke="none">
<path d="M512 1380 c-120 -32 -205 -83 -307 -185 -148 -147 -205 -286 -205
-495 0 -209 58 -349 205 -495 148 -148 286 -205 495 -205 208 0 345 57 495
205 147 146 205 285 205 495 0 209 -57 348 -205 495 -103 103 -187 154 -311
185 -103 27 -270 26 -372 0z m338 -147 c175 -48 332 -204 384 -382 21 -72 21
-230 0 -302 -19 -64 -69 -161 -95 -185 -19 -17 -21 -16 -57 18 -70 68 -165
115 -287 143 -30 7 -30 7 22 27 30 11 72 38 98 64 102 99 128 243 66 369 -54
110 -159 175 -281 175 -122 0 -227 -65 -281 -175 -62 -126 -36 -270 66 -369
26 -26 68 -53 98 -64 52 -20 52 -20 22 -27 -122 -28 -217 -75 -287 -143 -36
-34 -38 -35 -57 -18 -26 24 -76 120 -95 186 -10 34 -17 92 -17 150 0 146 36
245 131 358 138 165 360 233 570 175z m-64 -248 c111 -65 107 -220 -7 -284
-137 -78 -298 72 -229 213 43 90 149 122 236 71z m85 -643 c60 -29 129 -83
129 -101 0 -13 -91 -58 -153 -76 -75 -22 -219 -22 -294 0 -62 18 -153 63 -153
76 0 16 67 70 118 96 75 37 106 43 203 39 71 -3 96 -9 150 -34z"/>
</g>
</svg>
