<?xml version="1.0" standalone="no"?>
<!DOCTYPE svg PUBLIC "-//W3C//DTD SVG 20010904//EN"
 "http://www.w3.org/TR/2001/REC-SVG-20010904/DTD/svg10.dtd">
<svg version="1.0" xmlns="http://www.w3.org/2000/svg"
 width="140.000000pt" height="140.000000pt" viewBox="0 0 140.000000 140.000000"
 preserveAspectRatio="xMidYMid meet">
<metadata>
Created by potrace 1.16, written by Peter Selinger 2001-2019
</metadata>
<g transform="translate(0.000000,140.000000) scale(0.100000,-0.100000)"
fill="#000000" stroke="none">
<path d="M540 1095 c-9 -10 -10 -31 -6 -66 6 -47 5 -51 -11 -44 -157 68 -271
62 -383 -20 -55 -40 -112 -121 -129 -180 -18 -66 -14 -167 10 -232 16 -42 38
-74 83 -119 81 -81 148 -108 256 -102 159 10 272 110 397 351 132 256 324 327
474 177 128 -128 87 -339 -81 -413 -92 -41 -197 -17 -275 63 -45 46 -87 54
-105 20 -16 -30 -5 -52 51 -105 66 -62 126 -87 219 -93 108 -6 175 21 256 102
45 45 67 77 83 119 24 65 28 166 10 232 -26 94 -124 196 -220 231 -71 25 -178
21 -243 -9 -99 -45 -192 -150 -266 -297 -68 -137 -158 -238 -239 -270 -77 -31
-184 -5 -249 60 -104 104 -106 257 -3 360 82 82 180 99 289 48 50 -24 44 -32
-33 -43 -58 -8 -75 -19 -75 -49 0 -51 36 -56 193 -27 53 9 103 23 109 29 15
15 -17 235 -38 270 -17 25 -55 29 -74 7z"/>
</g>
</svg>
