<?xml version="1.0" standalone="no"?>
<!DOCTYPE svg PUBLIC "-//W3C//DTD SVG 20010904//EN"
 "http://www.w3.org/TR/2001/REC-SVG-20010904/DTD/svg10.dtd">
<svg version="1.0" xmlns="http://www.w3.org/2000/svg"
 width="140.000000pt" height="140.000000pt" viewBox="0 0 140.000000 140.000000"
 preserveAspectRatio="xMidYMid meet">
<metadata>
Created by potrace 1.16, written by Peter Selinger 2001-2019
</metadata>
<g transform="translate(0.000000,140.000000) scale(0.100000,-0.100000)"
fill="#000000" stroke="none">
<path d="M82 1366 l-37 -34 0 -632 0 -632 37 -34 38 -34 580 0 580 0 38 34 37
34 3 519 c2 285 0 532 -3 549 -4 22 -35 60 -110 135 -58 57 -115 109 -128 116
-17 9 -140 12 -510 13 l-487 0 -38 -34z m1072 -143 c50 -49 94 -92 98 -98 4
-5 8 -235 8 -511 0 -376 -3 -503 -12 -512 -17 -17 -1079 -17 -1096 0 -17 17
-17 1179 0 1196 9 9 125 12 461 12 l450 0 91 -87z"/>
<path d="M525 908 c-42 -24 -44 -35 -45 -251 l0 -209 29 -29 c20 -19 40 -29
60 -29 40 0 404 181 425 212 22 31 20 80 -5 113 -29 36 -369 205 -412 205 -18
0 -41 -6 -52 -12z m225 -334 c-91 -45 -168 -83 -172 -83 -5 -1 -8 76 -8 169
l0 170 172 -86 173 -86 -165 -84z"/>
</g>
</svg>
