<?xml version="1.0" standalone="no"?>
<!DOCTYPE svg PUBLIC "-//W3C//DTD SVG 20010904//EN"
 "http://www.w3.org/TR/2001/REC-SVG-20010904/DTD/svg10.dtd">
<svg version="1.0" xmlns="http://www.w3.org/2000/svg"
 width="140.000000pt" height="140.000000pt" viewBox="0 0 140.000000 140.000000"
 preserveAspectRatio="xMidYMid meet">
<metadata>
Created by potrace 1.16, written by Peter Selinger 2001-2019
</metadata>
<g transform="translate(0.000000,140.000000) scale(0.100000,-0.100000)"
fill="#000000" stroke="none">
<path d="M26 1379 l-26 -20 0 -658 0 -658 23 -21 c23 -22 28 -22 293 -20 l269
3 0 25 0 25 -249 3 c-164 1 -254 6 -263 13 -18 16 -19 1239 -1 1257 9 9 112
12 403 12 l390 0 117 -117 117 -118 3 -109 c2 -87 6 -111 19 -119 9 -6 24 -7
33 -4 14 5 16 25 16 134 l0 127 -133 133 -133 133 -426 0 c-415 0 -426 0 -452
-21z"/>
<path d="M234 1095 c-4 -8 -4 -22 0 -30 5 -13 40 -15 236 -15 l231 0 -3 28 -3
27 -228 3 c-196 2 -228 0 -233 -13z"/>
<path d="M242 931 c-8 -4 -12 -19 -10 -32 l3 -24 305 0 c285 0 305 1 308 18 9
45 -3 47 -307 47 -157 0 -292 -4 -299 -9z"/>
<path d="M234 745 c-4 -8 -4 -22 0 -30 5 -13 45 -15 308 -13 l303 3 0 25 0 25
-303 3 c-263 2 -303 0 -308 -13z"/>
<path d="M974 746 c-11 -8 -40 -60 -63 -115 l-43 -101 -92 0 c-84 0 -95 -2
-114 -23 -13 -14 -22 -36 -22 -56 0 -34 6 -42 103 -129 26 -23 47 -46 47 -50
0 -5 -16 -45 -35 -89 -40 -92 -44 -134 -15 -163 33 -33 74 -25 182 35 l99 56
98 -56 c105 -59 155 -70 183 -37 32 36 30 58 -13 159 l-42 98 77 70 c69 63 76
74 76 108 0 63 -23 77 -134 77 l-93 0 -38 91 c-49 116 -67 139 -109 139 -17 0
-41 -6 -52 -14z m102 -160 c23 -53 48 -104 55 -112 8 -10 37 -14 113 -14 l101
0 -90 -84 -90 -83 47 -109 c26 -60 44 -111 40 -115 -4 -4 -54 19 -111 52 -57
32 -111 59 -120 59 -9 0 -60 -25 -114 -55 -54 -30 -103 -56 -110 -58 -16 -3
-12 12 34 121 23 52 37 101 34 110 -4 9 -43 49 -87 87 l-81 70 106 5 c58 3
108 7 111 10 4 5 66 145 87 198 5 13 14 22 20 20 7 -2 31 -48 55 -102z"/>
<path d="M242 581 c-8 -4 -12 -19 -10 -32 l3 -24 145 0 c131 0 145 2 148 18 8
40 -14 47 -147 47 -69 0 -132 -4 -139 -9z"/>
<path d="M234 395 c-4 -8 -4 -22 0 -30 5 -13 28 -15 148 -13 l143 3 0 25 0 25
-143 3 c-120 2 -143 0 -148 -13z"/>
</g>
</svg>
