<?xml version="1.0" standalone="no"?>
<!DOCTYPE svg PUBLIC "-//W3C//DTD SVG 20010904//EN"
 "http://www.w3.org/TR/2001/REC-SVG-20010904/DTD/svg10.dtd">
<svg version="1.0" xmlns="http://www.w3.org/2000/svg"
 width="140.000000pt" height="140.000000pt" viewBox="0 0 140.000000 140.000000"
 preserveAspectRatio="xMidYMid meet">
<metadata>
Created by potrace 1.16, written by Peter Selinger 2001-2019
</metadata>
<g transform="translate(0.000000,140.000000) scale(0.100000,-0.100000)"
fill="#000000" stroke="none">
<path d="M410 1375 c-183 -51 -329 -196 -384 -384 -20 -70 -21 -209 -1 -286
68 -261 342 -440 605 -395 89 14 162 40 210 74 l35 24 195 -193 c126 -125 205
-196 223 -201 58 -14 107 35 93 93 -5 18 -76 98 -201 223 l-193 195 30 45 c89
138 99 352 24 510 -59 124 -185 239 -313 285 -68 24 -250 30 -323 10z m307
-180 c209 -95 287 -361 163 -554 -118 -185 -356 -236 -537 -116 -205 136 -234
419 -61 594 111 113 288 144 435 76z"/>
</g>
</svg>
