<?xml version="1.0" standalone="no"?>
<!DOCTYPE svg PUBLIC "-//W3C//DTD SVG 20010904//EN"
 "http://www.w3.org/TR/2001/REC-SVG-20010904/DTD/svg10.dtd">
<svg version="1.0" xmlns="http://www.w3.org/2000/svg"
 width="140.000000pt" height="140.000000pt" viewBox="0 0 140.000000 140.000000"
 preserveAspectRatio="xMidYMid meet">
<metadata>
Created by potrace 1.16, written by Peter Selinger 2001-2019
</metadata>
<g transform="translate(0.000000,140.000000) scale(0.100000,-0.100000)"
fill="#000000" stroke="none">
<path d="M647 1388 c-8 -7 -34 -44 -55 -83 l-39 -70 -83 -5 c-71 -4 -84 -8
-101 -29 -11 -14 -19 -39 -19 -62 0 -34 8 -47 66 -109 l66 -70 -36 -83 c-20
-46 -36 -91 -36 -100 0 -22 49 -74 76 -82 15 -4 52 10 118 45 l96 51 96 -51
c66 -35 103 -49 118 -45 27 8 76 60 76 82 0 9 -16 54 -36 100 l-36 83 66 70
c58 62 66 75 66 109 0 23 -8 48 -19 62 -17 21 -30 25 -101 29 l-83 5 -39 70
c-46 83 -60 95 -108 95 -20 0 -44 -6 -53 -12z m97 -168 c20 -39 46 -75 56 -80
10 -6 46 -10 80 -10 l62 0 -52 -57 c-88 -96 -86 -90 -49 -178 17 -42 30 -78
27 -80 -2 -2 -37 16 -78 40 -41 24 -81 44 -88 45 -7 0 -48 -20 -92 -45 -44
-25 -81 -45 -84 -45 -3 0 8 28 23 63 48 106 49 97 -24 181 l-66 76 61 0 c34 0
70 4 80 10 10 5 36 41 56 80 21 38 41 70 44 70 3 0 23 -32 44 -70z"/>
<path d="M302 693 c-7 -3 -33 -40 -58 -84 l-46 -79 -74 0 c-66 0 -78 -3 -99
-25 -18 -17 -25 -35 -25 -64 0 -36 7 -48 66 -111 l66 -70 -37 -85 c-39 -91
-39 -112 -2 -152 32 -36 77 -30 173 23 l84 46 84 -46 c96 -53 141 -59 173 -23
37 40 37 61 -2 152 l-37 86 63 67 c35 37 66 67 69 67 3 0 34 -30 69 -67 l63
-67 -37 -86 c-39 -91 -39 -112 -2 -152 32 -36 77 -30 173 23 l84 46 84 -46
c96 -53 141 -59 173 -24 37 41 37 62 -2 153 l-37 85 66 70 c58 62 66 75 66
109 0 23 -8 48 -19 62 -17 21 -30 25 -101 29 l-83 5 -39 70 c-46 83 -60 95
-108 95 -48 0 -62 -12 -108 -95 l-39 -70 -83 -5 c-71 -4 -84 -8 -101 -29 l-19
-23 -19 23 c-17 21 -30 25 -101 29 l-83 5 -39 70 c-21 39 -47 76 -55 83 -17
12 -76 15 -101 5z m92 -173 c20 -39 46 -75 56 -80 10 -6 46 -10 80 -10 l61 0
-66 -75 c-36 -41 -65 -79 -65 -84 0 -6 15 -44 34 -85 19 -42 32 -76 29 -76 -3
0 -41 20 -84 45 -43 25 -83 45 -89 45 -6 0 -46 -20 -90 -45 -44 -25 -81 -45
-84 -45 -3 0 8 28 23 62 48 107 49 98 -24 182 l-66 76 61 0 c34 0 70 4 80 10
10 5 36 41 56 80 21 38 41 70 44 70 3 0 23 -32 44 -70z m700 0 c20 -39 46 -75
56 -80 10 -6 46 -10 80 -10 l61 0 -66 -75 c-36 -41 -65 -79 -65 -84 0 -6 15
-44 34 -85 19 -42 32 -76 29 -76 -3 0 -41 20 -84 45 -43 25 -83 45 -89 45 -6
0 -46 -20 -90 -45 -44 -25 -81 -45 -84 -45 -2 0 12 36 31 80 40 93 42 86 -47
183 l-52 57 62 0 c34 0 70 4 80 10 10 5 36 41 56 80 21 38 41 70 44 70 3 0 23
-32 44 -70z"/>
</g>
</svg>
