<?xml version="1.0" standalone="no"?>
<!DOCTYPE svg PUBLIC "-//W3C//DTD SVG 20010904//EN"
 "http://www.w3.org/TR/2001/REC-SVG-20010904/DTD/svg10.dtd">
<svg version="1.0" xmlns="http://www.w3.org/2000/svg"
 width="140.000000pt" height="140.000000pt" viewBox="0 0 140.000000 140.000000"
 preserveAspectRatio="xMidYMid meet">
<metadata>
Created by potrace 1.16, written by Peter Selinger 2001-2019
</metadata>
<g transform="translate(0.000000,140.000000) scale(0.100000,-0.100000)"
fill="#000000" stroke="none">
<path d="M5 1378 c-3 -13 -4 -327 -3 -698 l3 -675 695 0 695 0 3 675 c1 371 0
685 -3 698 l-5 22 -690 0 -690 0 -5 -22z m1305 -678 l0 -610 -610 0 -610 0 0
610 0 610 610 0 610 0 0 -610z"/>
<path d="M936 1207 c-12 -12 -31 -46 -41 -75 l-19 -52 -48 0 c-104 0 -122 -87
-30 -152 l22 -15 -20 -44 c-26 -58 -25 -75 5 -104 32 -33 64 -31 128 5 l52 29
50 -29 c57 -34 94 -38 124 -12 27 21 30 63 7 117 -16 38 -16 40 1 52 62 44 74
72 52 116 -17 31 -28 37 -80 37 l-47 0 -22 60 c-33 89 -86 115 -134 67z m87
-205 c5 -6 20 -12 35 -12 l26 0 -23 -16 c-23 -17 -25 -43 -6 -88 8 -17 6 -17
-23 -2 -17 9 -38 16 -47 16 -9 0 -30 -7 -47 -16 -29 -15 -31 -15 -23 2 18 43
17 62 -6 83 l-23 21 28 0 c24 0 31 7 49 50 l21 50 16 -37 c8 -21 19 -44 23
-51z"/>
<path d="M182 1168 c-9 -9 -12 -68 -12 -204 0 -162 3 -195 16 -208 13 -13 46
-16 209 -16 189 0 194 1 209 22 13 18 16 56 16 201 0 104 -4 186 -10 198 -10
18 -23 19 -213 19 -145 0 -206 -3 -215 -12z m338 -208 l0 -130 -125 0 -125 0
0 130 0 130 125 0 125 0 0 -130z"/>
<path d="M372 613 c-14 -6 -202 -375 -202 -397 0 -8 7 -22 16 -30 13 -13 46
-16 209 -16 l195 0 16 26 c17 25 15 28 -72 205 -106 214 -118 230 -162 212z
m72 -250 l46 -93 -95 0 -95 0 47 95 c26 52 48 93 49 92 1 -1 23 -44 48 -94z"/>
<path d="M960 610 c-107 -21 -173 -103 -173 -215 0 -198 224 -297 369 -163
113 104 87 293 -51 360 -39 20 -101 27 -145 18z m111 -113 c41 -28 59 -60 59
-111 0 -31 -7 -45 -39 -77 -34 -34 -44 -39 -85 -39 -38 0 -52 6 -82 33 -112
102 21 279 147 194z"/>
</g>
</svg>
