<?xml version="1.0" standalone="no"?>
<!DOCTYPE svg PUBLIC "-//W3C//DTD SVG 20010904//EN"
 "http://www.w3.org/TR/2001/REC-SVG-20010904/DTD/svg10.dtd">
<svg version="1.0" xmlns="http://www.w3.org/2000/svg"
 width="140.000000pt" height="140.000000pt" viewBox="0 0 140.000000 140.000000"
 preserveAspectRatio="xMidYMid meet">
<metadata>
Created by potrace 1.16, written by Peter Selinger 2001-2019
</metadata>
<g transform="translate(0.000000,140.000000) scale(0.100000,-0.100000)"
fill="#000000" stroke="none">
<path d="M666 1344 c-12 -11 -16 -35 -16 -88 l0 -72 -72 -17 c-42 -9 -97 -32
-131 -53 l-59 -36 -52 51 c-51 51 -81 62 -104 39 -23 -23 -12 -53 38 -103 l51
-51 -36 -60 c-37 -60 -65 -140 -65 -181 0 -22 -3 -23 -74 -23 -79 0 -106 -13
-106 -50 0 -37 27 -50 106 -50 71 0 74 -1 74 -23 0 -41 28 -121 65 -181 l36
-60 -51 -51 c-50 -50 -61 -80 -38 -103 23 -23 53 -12 105 40 l52 51 40 -27
c46 -32 160 -76 196 -76 24 0 25 -2 25 -74 0 -79 13 -106 50 -106 37 0 50 27
50 106 0 66 2 74 19 74 38 0 148 40 195 71 l47 32 53 -52 c51 -51 81 -62 104
-39 23 23 12 53 -38 103 l-51 51 36 60 c37 60 65 140 65 181 0 22 3 23 74 23
79 0 106 13 106 50 0 37 -27 50 -106 50 -71 0 -74 1 -74 23 0 41 -28 121 -65
181 l-36 60 51 51 c50 50 61 80 38 103 -23 23 -53 12 -104 -39 l-52 -51 -59
36 c-34 21 -89 44 -131 53 l-72 17 0 72 c0 77 -13 104 -50 104 -10 0 -26 -7
-34 -16z m163 -280 c93 -28 208 -146 239 -244 42 -134 13 -270 -81 -377 -66
-74 -193 -133 -287 -133 -93 0 -218 58 -286 132 -131 142 -134 359 -8 507 104
121 261 164 423 115z"/>
<path d="M620 858 c-132 -67 -132 -249 0 -315 56 -29 104 -29 160 -1 132 67
132 249 0 316 -24 12 -60 22 -80 22 -20 0 -56 -10 -80 -22z m135 -103 c16 -15
25 -36 25 -55 0 -19 -9 -40 -25 -55 -15 -16 -36 -25 -55 -25 -19 0 -40 9 -55
25 -16 15 -25 36 -25 55 0 19 9 40 25 55 15 16 36 25 55 25 19 0 40 -9 55 -25z"/>
</g>
</svg>
