<?xml version="1.0" standalone="no"?>
<!DOCTYPE svg PUBLIC "-//W3C//DTD SVG 20010904//EN"
 "http://www.w3.org/TR/2001/REC-SVG-20010904/DTD/svg10.dtd">
<svg version="1.0" xmlns="http://www.w3.org/2000/svg"
 width="140.000000pt" height="140.000000pt" viewBox="0 0 140.000000 140.000000"
 preserveAspectRatio="xMidYMid meet">
<metadata>
Created by potrace 1.16, written by Peter Selinger 2001-2019
</metadata>
<g transform="translate(0.000000,140.000000) scale(0.100000,-0.100000)"
fill="#000000" stroke="none">
<path d="M537 1302 c-21 -23 -22 -46 -1 -66 13 -14 47 -16 217 -16 111 0 222
-5 246 -11 198 -45 333 -238 301 -432 -24 -152 -114 -258 -265 -313 -65 -24
-69 -24 -467 -24 l-402 0 92 94 c56 56 92 101 92 114 0 38 -11 52 -41 52 -24
0 -54 -25 -169 -138 -117 -114 -140 -142 -140 -166 0 -24 24 -54 137 -168 75
-76 145 -140 155 -144 28 -9 58 14 58 44 0 20 -22 49 -97 124 l-98 98 427 0
c390 0 431 2 487 19 149 46 273 173 316 325 13 43 16 85 13 165 -3 98 -6 112
-40 182 -68 139 -209 245 -358 268 -36 6 -151 11 -256 11 -172 0 -193 -2 -207
-18z"/>
</g>
</svg>
