<?xml version="1.0" standalone="no"?>
<!DOCTYPE svg PUBLIC "-//W3C//DTD SVG 20010904//EN"
 "http://www.w3.org/TR/2001/REC-SVG-20010904/DTD/svg10.dtd">
<svg version="1.0" xmlns="http://www.w3.org/2000/svg"
 width="140.000000pt" height="140.000000pt" viewBox="0 0 140.000000 140.000000"
 preserveAspectRatio="xMidYMid meet">
<metadata>
Created by potrace 1.16, written by Peter Selinger 2001-2019
</metadata>
<g transform="translate(0.000000,140.000000) scale(0.100000,-0.100000)"
fill="#000000" stroke="none">
<path d="M319 1353 c-129 -138 -134 -125 114 -336 111 -95 239 -204 285 -241
45 -38 82 -72 82 -76 0 -4 -128 -117 -285 -249 -248 -211 -285 -246 -285 -270
0 -31 21 -62 84 -129 64 -67 76 -63 237 79 35 31 183 159 329 284 146 126 270
236 277 245 16 19 16 61 0 80 -7 9 -178 159 -380 333 -290 250 -374 317 -395
317 -19 0 -39 -12 -63 -37z m407 -329 c170 -148 325 -281 343 -296 l33 -28
-32 -26 c-17 -15 -178 -154 -358 -310 -251 -217 -330 -280 -340 -272 -7 6 -26
28 -42 48 l-30 38 285 241 c156 133 289 250 295 261 7 14 8 26 0 39 -5 11
-123 115 -262 233 -138 117 -267 227 -285 243 l-33 30 41 48 c37 43 43 46 58
34 9 -8 156 -135 327 -283z"/>
</g>
</svg>
